HIERARCHY
ROOT hips
{
	OFFSET 0.000000 104.274902 0.000000
	CHANNELS 6 Xposition Yposition Zposition Xrotation Yrotation Zrotation
	JOINT spine
	{
		OFFSET 0.000000 10.181549 0.131524
		CHANNELS 6 Xposition Yposition Zposition Xrotation Yrotation Zrotation
		JOINT chest
		{
			OFFSET 0.000000 9.893990 -1.470706
			CHANNELS 3 Xrotation Yrotation Zrotation
			JOINT upperChest
			{
				OFFSET 0.000000 9.220787 -1.370637
				CHANNELS 3 Xrotation Yrotation Zrotation
				JOINT neck
				{
					OFFSET 0.000000 16.740372 -2.049022
					CHANNELS 6 Xposition Yposition Zposition Xrotation Yrotation Zrotation
					JOINT head
					{
						OFFSET 0.000000 9.617859 1.684976
						CHANNELS 6 Xposition Yposition Zposition Xrotation Yrotation Zrotation
						JOINT headEnd
						{
							OFFSET 0.000000 22.037384 7.501072
							CHANNELS 6 Xposition Yposition Zposition Xrotation Yrotation Zrotation
							End Site
							{
								OFFSET 0.000000 23.106567 -2.828246
							}
						}
					}
				}
				JOINT rightShoulder
				{
					OFFSET -4.570000 11.014877 -2.160840
					CHANNELS 6 Xposition Yposition Zposition Xrotation Yrotation Zrotation
					JOINT rightUpperArm
					{
						OFFSET -10.592867 -0.524796 -2.232105
						CHANNELS 3 Xrotation Yrotation Zrotation
						JOINT rightLowerArm
						{
							OFFSET -27.841497 0.000000 -0.000002
							CHANNELS 3 Xrotation Yrotation Zrotation
							JOINT rightHand
							{
								OFFSET -28.328812 0.000000 -0.000001
								CHANNELS 3 Xrotation Yrotation Zrotation
								JOINT rightThumbProximal
								{
									OFFSET -2.464798 -1.573990 2.681911
									CHANNELS 6 Xposition Yposition Zposition Xrotation Yrotation Zrotation
									JOINT rightThumbIntermediate
									{
										OFFSET -3.244781 -1.873383 1.873376
										CHANNELS 3 Xrotation Yrotation Zrotation
										JOINT rightThumbDistal
										{
											OFFSET -2.646263 -1.527817 1.527818
											CHANNELS 6 Xposition Yposition Zposition Xrotation Yrotation Zrotation
											JOINT rightHandThumb4
											{
												OFFSET -1.994591 -1.151581 1.151575
												CHANNELS 6 Xposition Yposition Zposition Xrotation Yrotation Zrotation
												End Site
												{
													OFFSET -1.860176 -1.142715 1.365483
												}
											}
										}
									}
								}
								JOINT rightIndexProximal
								{
									OFFSET -9.108299 -0.517883 2.259803
									CHANNELS 6 Xposition Yposition Zposition Xrotation Yrotation Zrotation
									JOINT rightIndexIntermediate
									{
										OFFSET -3.699997 0.000000 0.000000
										CHANNELS 3 Xrotation Yrotation Zrotation
										JOINT rightIndexDistal
										{
											OFFSET -2.850006 0.000000 0.000000
											CHANNELS 3 Xrotation Yrotation Zrotation
											JOINT rightHandIndex4
											{
												OFFSET -2.772194 0.000000 0.000000
												CHANNELS 3 Xrotation Yrotation Zrotation
												End Site
												{
													OFFSET -2.772202 0.000000 -0.000484
												}
											}
										}
									}
								}
								JOINT rightMiddleProximal
								{
									OFFSET -9.532501 0.000000 -0.000000
									CHANNELS 6 Xposition Yposition Zposition Xrotation Yrotation Zrotation
									JOINT rightMiddleIntermediate
									{
										OFFSET -3.699997 0.000000 0.000000
										CHANNELS 3 Xrotation Yrotation Zrotation
										JOINT rightMiddleDistal
										{
											OFFSET -2.949997 0.000000 0.000000
											CHANNELS 3 Xrotation Yrotation Zrotation
											JOINT rightHandMiddle4
											{
												OFFSET -2.946594 0.000000 0.000000
												CHANNELS 3 Xrotation Yrotation Zrotation
												End Site
												{
													OFFSET -2.946602 0.000000 -0.000982
												}
											}
										}
									}
								}
								JOINT rightRingProximal
								{
									OFFSET -9.103600 -0.043106 -1.865100
									CHANNELS 6 Xposition Yposition Zposition Xrotation Yrotation Zrotation
									JOINT rightRingIntermediate
									{
										OFFSET -3.379303 0.000000 0.000000
										CHANNELS 3 Xrotation Yrotation Zrotation
										JOINT rightRingDistal
										{
											OFFSET -2.889694 0.000000 0.000000
											CHANNELS 3 Xrotation Yrotation Zrotation
											JOINT rightHandRing4
											{
												OFFSET -2.638802 0.000000 0.000000
												CHANNELS 3 Xrotation Yrotation Zrotation
												End Site
												{
													OFFSET -2.638802 0.000000 0.004218
												}
											}
										}
									}
								}
								JOINT rightLittleProximal
								{
									OFFSET -8.076698 -0.486725 -3.806299
									CHANNELS 6 Xposition Yposition Zposition Xrotation Yrotation Zrotation
									JOINT rightLittleIntermediate
									{
										OFFSET -3.600006 0.000000 0.000000
										CHANNELS 3 Xrotation Yrotation Zrotation
										JOINT rightLittleDistal
										{
											OFFSET -2.099998 0.000000 0.000000
											CHANNELS 3 Xrotation Yrotation Zrotation
											JOINT rightHandPinky4
											{
												OFFSET -2.115791 0.000000 0.000000
												CHANNELS 3 Xrotation Yrotation Zrotation
												End Site
												{
													OFFSET -2.115799 0.000000 0.000174
												}
											}
										}
									}
								}
							}
						}
					}
				}
				JOINT leftShoulder
				{
					OFFSET 4.570400 11.014679 -2.160816
					CHANNELS 6 Xposition Yposition Zposition Xrotation Yrotation Zrotation
					JOINT leftUpperArm
					{
						OFFSET 10.592373 -0.524597 -2.232116
						CHANNELS 3 Xrotation Yrotation Zrotation
						JOINT leftLowerArm
						{
							OFFSET 27.841488 0.000000 0.000001
							CHANNELS 3 Xrotation Yrotation Zrotation
							JOINT leftHand
							{
								OFFSET 28.328808 0.000000 -0.000000
								CHANNELS 3 Xrotation Yrotation Zrotation
								JOINT leftThumbProximal
								{
									OFFSET 2.466103 -1.576202 2.681698
									CHANNELS 6 Xposition Yposition Zposition Xrotation Yrotation Zrotation
									JOINT leftThumbIntermediate
									{
										OFFSET 3.243317 -1.872528 1.872530
										CHANNELS 3 Xrotation Yrotation Zrotation
										JOINT leftThumbDistal
										{
											OFFSET 2.647881 -1.528763 1.528754
											CHANNELS 6 Xposition Yposition Zposition Xrotation Yrotation Zrotation
											JOINT leftHandThumb4
											{
												OFFSET 1.998924 -1.154083 1.154080
												CHANNELS 6 Xposition Yposition Zposition Xrotation Yrotation Zrotation
												End Site
												{
													OFFSET 1.884041 -1.149155 1.337651
												}
											}
										}
									}
								}
								JOINT leftIndexProximal
								{
									OFFSET 9.109299 -0.518005 2.259900
									CHANNELS 6 Xposition Yposition Zposition Xrotation Yrotation Zrotation
									JOINT leftIndexIntermediate
									{
										OFFSET 3.699997 0.000000 0.000000
										CHANNELS 3 Xrotation Yrotation Zrotation
										JOINT leftIndexDistal
										{
											OFFSET 2.850006 0.000000 0.000000
											CHANNELS 3 Xrotation Yrotation Zrotation
											JOINT leftHandIndex4
											{
												OFFSET 2.774895 0.000000 0.000000
												CHANNELS 3 Xrotation Yrotation Zrotation
												End Site
												{
													OFFSET 2.774902 0.000000 -0.000072
												}
											}
										}
									}
								}
								JOINT leftMiddleProximal
								{
									OFFSET 9.533401 0.000000 0.000000
									CHANNELS 6 Xposition Yposition Zposition Xrotation Yrotation Zrotation
									JOINT leftMiddleIntermediate
									{
										OFFSET 3.699997 0.000000 0.000000
										CHANNELS 3 Xrotation Yrotation Zrotation
										JOINT leftMiddleDistal
										{
											OFFSET 2.949997 0.000000 0.000000
											CHANNELS 3 Xrotation Yrotation Zrotation
											JOINT leftHandMiddle4
											{
												OFFSET 2.952896 0.000000 0.000000
												CHANNELS 3 Xrotation Yrotation Zrotation
												End Site
												{
													OFFSET 2.952904 0.000000 0.000165
												}
											}
										}
									}
								}
								JOINT leftRingProximal
								{
									OFFSET 9.104500 -0.042999 -1.865101
									CHANNELS 6 Xposition Yposition Zposition Xrotation Yrotation Zrotation
									JOINT leftRingIntermediate
									{
										OFFSET 3.149994 0.000000 0.000000
										CHANNELS 3 Xrotation Yrotation Zrotation
										JOINT leftRingDistal
										{
											OFFSET 2.950005 0.000000 0.000000
											CHANNELS 3 Xrotation Yrotation Zrotation
											JOINT leftHandRing4
											{
												OFFSET 2.644302 0.000000 0.000000
												CHANNELS 3 Xrotation Yrotation Zrotation
												End Site
												{
													OFFSET 2.644302 0.000000 0.000083
												}
											}
										}
									}
								}
								JOINT leftLittleProximal
								{
									OFFSET 8.077805 -0.486893 -3.806302
									CHANNELS 6 Xposition Yposition Zposition Xrotation Yrotation Zrotation
									JOINT leftLittleIntermediate
									{
										OFFSET 3.600006 0.000000 0.000000
										CHANNELS 3 Xrotation Yrotation Zrotation
										JOINT leftLittleDistal
										{
											OFFSET 2.099998 0.000000 0.000000
											CHANNELS 3 Xrotation Yrotation Zrotation
											JOINT leftHandPinky4
											{
												OFFSET 2.125496 0.000000 0.000000
												CHANNELS 3 Xrotation Yrotation Zrotation
												End Site
												{
													OFFSET 2.125504 0.000000 -0.001254
												}
											}
										}
									}
								}
							}
						}
					}
				}
			}
		}
	}
	JOINT rightUpperLeg
	{
		OFFSET -8.207800 -6.751701 -1.599544
		CHANNELS 6 Xposition Yposition Zposition Xrotation Yrotation Zrotation
		JOINT rightLowerLeg
		{
			OFFSET 0.000004 -44.370152 0.345934
			CHANNELS 3 Xrotation Yrotation Zrotation
			JOINT rightFoot
			{
				OFFSET 0.000004 -44.423664 -3.043535
				CHANNELS 3 Xrotation Yrotation Zrotation
				JOINT rightToes
				{
					OFFSET 0.000001 -8.728691 10.710592
					CHANNELS 3 Xrotation Yrotation Zrotation
					JOINT rightToesEnd
					{
						OFFSET 0.000000 -0.000665 9.278101
						CHANNELS 3 Xrotation Yrotation Zrotation
						End Site
						{
							OFFSET 0.000000 -0.000665 9.278103
						}
					}
				}
			}
		}
	}
	JOINT leftUpperLeg
	{
		OFFSET 8.207800 -6.751701 -1.599544
		CHANNELS 6 Xposition Yposition Zposition Xrotation Yrotation Zrotation
		JOINT leftLowerLeg
		{
			OFFSET 0.000004 -44.370037 0.346940
			CHANNELS 3 Xrotation Yrotation Zrotation
			JOINT leftFoot
			{
				OFFSET 0.000004 -44.423611 -3.044388
				CHANNELS 3 Xrotation Yrotation Zrotation
				JOINT leftToes
				{
					OFFSET 0.000001 -8.728690 10.710592
					CHANNELS 3 Xrotation Yrotation Zrotation
					JOINT leftToesEnd
					{
						OFFSET 0.000000 -0.000680 9.278101
						CHANNELS 3 Xrotation Yrotation Zrotation
						End Site
						{
							OFFSET 0.000000 -0.000680 9.278101
						}
					}
				}
			}
		}
	}
}
MOTION
Frames: 4
Frame Time: 0.033333
0.478605 101.630562 1.555271 -0.893324 1.577711 -5.359060 0.000001 10.181539 0.131524 1.298036 -1.197519 3.016743 0.728745 0.264195 5.944685 0.710789 0.781492 5.851999 0.000001 16.740410 -2.049023 1.045307 -0.304693 -2.163987 -0.000004 9.617852 1.684973 1.584931 0.544179 -8.140494 -0.000001 22.037384 7.501069 -0.000000 0.000000 0.000000 -4.569999 11.014923 -2.160843 4.508137 3.324373 5.471571 -1.219697 0.655845 67.345412 -0.000014 17.736787 0.000010 -11.193105 -9.123283 10.139276 -2.464793 -1.574001 2.681909 18.491287 0.461463 -10.916094 1.284030 -32.757618 3.089018 -2.646276 -1.527808 1.527815 2.008710 -8.430473 1.114699 -1.994590 -1.151582 1.151587 -0.000003 0.000001 -0.000000 -9.108312 -0.517872 2.259802 0.339564 -4.671350 7.844288 0.387031 -2.823579 20.566253 -0.193124 -0.216341 13.843924 0.000000 -0.000000 0.000002 -9.532499 0.000001 -0.000001 0.912578 -8.769261 15.831743 0.919074 -3.991129 33.400424 0.216468 -1.688825 15.898054 0.000000 -0.000000 -0.000003 -9.103594 -0.043109 -1.865103 2.555813 -11.673029 26.909200 1.710648 -3.886777 40.215471 -0.157953 0.035274 17.815334 -0.000000 -0.000000 -0.000000 -8.076686 -0.486724 -3.806301 5.576068 -16.029166 36.940641 1.378681 -4.077636 45.645611 -0.727744 -0.247552 22.122735 -0.000001 -0.000000 -0.000001 4.570402 11.014721 -2.160817 3.582350 -13.764050 -5.044503 4.032790 3.514259 -83.678348 -0.000013 -14.506748 0.000014 -27.592624 3.698765 -9.416206 2.466112 -1.576202 2.681695 18.491369 -0.461330 10.916053 1.284030 32.757604 -3.089007 2.647883 -1.528752 1.528749 2.117133 9.311168 -0.358614 1.998932 -1.154076 1.154077 -0.000001 0.000001 -0.000000 9.109318 -0.518016 2.259900 0.339568 4.671361 -7.844249 0.386999 2.823617 -20.566227 0.034618 0.816855 -10.169814 -0.000000 0.000000 -0.000001 9.533418 0.000002 -0.000002 0.912557 8.769292 -15.831721 0.919045 3.991189 -33.400397 0.170558 1.488898 -12.264410 -0.000000 -0.000001 -0.000001 9.104516 -0.042988 -1.865102 2.555787 11.673080 -26.909175 1.710599 3.886848 -40.215454 0.544842 1.835115 -19.344151 0.000001 0.000001 0.000000 8.077812 -0.486891 -3.806306 5.576043 16.029243 -36.940614 1.378645 4.077719 -45.645628 0.486561 2.853424 -20.524717 0.000001 0.000001 0.000001 -8.207798 -6.751718 -1.599544 -1.610456 -4.968188 10.553009 12.452476 -5.083422 3.268252 -9.845191 1.009963 -7.756162 -0.524590 -0.000001 -0.000003 -0.000000 -0.000000 -0.000000 8.207800 -6.751705 -1.599543 -19.560885 10.811512 15.937685 22.050945 9.499328 2.339198 -1.506753 3.352284 -8.781705 -0.419543 -0.000004 0.000001 0.000000 0.000002 0.000000 
0.209177 101.622086 1.527225 -0.793422 1.680444 -5.587530 0.000002 10.181543 0.131525 1.225913 -1.204109 3.076048 0.883784 0.274247 5.935621 0.874438 0.782058 5.804660 -0.000001 16.740358 -2.049021 0.823465 -0.344953 -1.909928 -0.000002 9.617875 1.684977 0.389958 0.303444 -7.738953 -0.000000 22.037369 7.501072 -0.000000 0.000000 -0.000000 -4.569998 11.014881 -2.160839 4.449796 3.381861 5.730798 -1.131152 1.840431 67.077095 -0.000007 17.687982 0.000022 -11.183829 -8.708367 10.219217 -2.464799 -1.573999 2.681909 18.491287 0.461461 -10.916101 1.284028 -32.757611 3.089025 -2.646261 -1.527811 1.527814 2.008708 -8.430474 1.114699 -1.994594 -1.151585 1.151572 0.000002 -0.000003 0.000001 -9.108296 -0.517871 2.259804 0.339564 -4.671351 7.844288 0.387031 -2.823579 20.566253 -0.193124 -0.216341 13.843929 -0.000000 0.000000 -0.000004 -9.532499 -0.000003 -0.000001 0.912577 -8.769263 15.831745 0.919074 -3.991129 33.400424 0.216468 -1.688824 15.898052 -0.000001 -0.000000 0.000001 -9.103601 -0.043101 -1.865103 2.555813 -11.673030 26.909197 1.710647 -3.886778 40.215471 -0.157954 0.035275 17.815333 -0.000002 0.000000 -0.000000 -8.076694 -0.486728 -3.806298 5.576069 -16.029168 36.940638 1.378682 -4.077637 45.645615 -0.727744 -0.247552 22.122735 -0.000000 0.000001 0.000002 4.570401 11.014668 -2.160815 3.574456 -13.651336 -4.988286 3.522157 3.255700 -83.224626 0.000016 -14.517241 0.000009 -27.030004 4.361189 -9.454744 2.466093 -1.576204 2.681690 18.491368 -0.461327 10.916056 1.284029 32.757608 -3.089009 2.647887 -1.528768 1.528751 2.117135 9.311166 -0.358616 1.998917 -1.154090 1.154076 0.000001 0.000005 -0.000000 9.109287 -0.518017 2.259899 0.339568 4.671361 -7.844252 0.386994 2.823617 -20.566226 0.034617 0.816854 -10.169813 -0.000000 0.000001 -0.000005 9.533391 0.000004 0.000000 0.912560 8.769292 -15.831723 0.919047 3.991189 -33.400397 0.170556 1.488899 -12.264412 0.000001 -0.000001 -0.000000 9.104483 -0.043003 -1.865101 2.555785 11.673079 -26.909171 1.710600 3.886848 -40.215454 0.544844 1.835116 -19.344154 0.000000 0.000001 0.000000 8.077805 -0.486891 -3.806299 5.576041 16.029245 -36.940610 1.378645 4.077719 -45.645625 0.486560 2.853423 -20.524722 -0.000000 -0.000000 -0.000002 -8.207794 -6.751733 -1.599544 -1.447104 -4.731873 10.999576 11.851266 -5.334391 3.313092 -9.553275 0.950159 -7.977961 -0.510297 -0.000006 -0.000001 -0.000000 0.000000 0.000000 8.207802 -6.751715 -1.599547 -19.739141 10.600044 16.287993 21.972491 9.669960 2.385777 -1.336826 3.130927 -8.964442 -0.419550 0.000003 0.000002 -0.000000 -0.000000 0.000000 
-0.046819 101.585587 1.517867 -0.700801 1.803663 -5.835956 0.000001 10.181524 0.131525 1.154571 -1.246495 3.130988 1.050320 0.266992 5.907279 1.049969 0.762833 5.735968 -0.000005 16.740320 -2.049017 0.563218 -0.377230 -1.640716 0.000001 9.617827 1.684978 -0.891137 0.058435 -7.280995 -0.000000 22.037369 7.501076 0.000000 -0.000000 0.000000 -4.570004 11.014819 -2.160837 4.366727 3.471364 6.080076 -1.020903 3.112605 66.763091 -0.000001 17.420840 0.000014 -11.208885 -8.023029 10.340273 -2.464808 -1.573991 2.681911 18.491289 0.461458 -10.916094 1.284028 -32.757611 3.089016 -2.646261 -1.527808 1.527814 2.008709 -8.430474 1.114699 -1.994599 -1.151585 1.151581 -0.000002 0.000001 0.000003 -9.108319 -0.517872 2.259802 0.339564 -4.671351 7.844288 0.387031 -2.823579 20.566253 -0.193124 -0.216341 13.843934 -0.000000 -0.000000 0.000002 -9.532511 -0.000001 -0.000000 0.912577 -8.769263 15.831742 0.919074 -3.991130 33.400421 0.216469 -1.688823 15.898049 -0.000000 -0.000000 0.000004 -9.103621 -0.043105 -1.865101 2.555813 -11.673029 26.909200 1.710647 -3.886777 40.215474 -0.157953 0.035273 17.815331 -0.000001 -0.000001 -0.000000 -8.076697 -0.486728 -3.806300 5.576068 -16.029165 36.940641 1.378681 -4.077637 45.645618 -0.727744 -0.247553 22.122735 -0.000002 -0.000001 0.000001 4.570395 11.014651 -2.160811 3.562875 -13.544200 -4.938742 2.983162 2.951954 -82.727873 -0.000001 -14.534475 0.000020 -26.397757 5.106520 -9.520541 2.466099 -1.576204 2.681697 18.491371 -0.461328 10.916054 1.284031 32.757604 -3.089004 2.647883 -1.528755 1.528758 2.117133 9.311165 -0.358618 1.998905 -1.154092 1.154073 0.000002 -0.000000 0.000002 9.109310 -0.518017 2.259900 0.339566 4.671362 -7.844251 0.386997 2.823617 -20.566222 0.034616 0.816856 -10.169815 0.000001 0.000000 -0.000001 9.533402 -0.000002 0.000001 0.912559 8.769292 -15.831719 0.919045 3.991189 -33.400397 0.170559 1.488899 -12.264411 -0.000000 0.000000 -0.000000 9.104494 -0.042991 -1.865101 2.555787 11.673079 -26.909171 1.710598 3.886847 -40.215454 0.544843 1.835115 -19.344154 -0.000001 -0.000001 0.000000 8.077798 -0.486891 -3.806307 5.576041 16.029242 -36.940610 1.378645 4.077718 -45.645628 0.486561 2.853424 -20.524720 0.000000 0.000000 0.000002 -8.207798 -6.751716 -1.599544 -1.364498 -4.500932 11.451278 11.453202 -5.597235 3.356371 -9.378597 0.896595 -8.180337 -0.526983 0.000000 -0.000001 0.000000 -0.000001 -0.000000 8.207799 -6.751719 -1.599543 -19.988687 10.358007 16.653191 22.066157 9.752550 2.453956 -1.260619 2.988467 -9.165598 -0.419540 -0.000015 0.000005 -0.000000 -0.000000 0.000000 
-0.310205 101.526886 1.517867 -0.616136 1.937895 -6.117569 -0.000001 10.181550 0.131525 1.086615 -1.325216 3.185457 1.232319 0.241031 5.854368 1.241431 0.721576 5.640138 -0.000001 16.740374 -2.049021 0.259064 -0.402470 -1.354238 -0.000003 9.617854 1.684977 -2.262397 -0.210804 -6.744989 0.000000 22.037369 7.501070 0.000000 0.000000 -0.000000 -4.569998 11.014875 -2.160840 4.249121 3.601351 6.547366 -0.880318 4.489413 66.384617 -0.000014 16.863174 0.000016 -11.283724 -6.970737 10.511145 -2.464797 -1.573987 2.681910 18.491287 0.461461 -10.916097 1.284028 -32.757608 3.089020 -2.646258 -1.527809 1.527811 2.008709 -8.430473 1.114704 -1.994589 -1.151579 1.151575 -0.000002 -0.000004 -0.000001 -9.108298 -0.517874 2.259803 0.339564 -4.671351 7.844288 0.387031 -2.823579 20.566255 -0.193124 -0.216341 13.843927 0.000000 0.000000 0.000004 -9.532503 -0.000001 0.000001 0.912577 -8.769263 15.831742 0.919074 -3.991130 33.400424 0.216468 -1.688824 15.898049 -0.000000 -0.000000 -0.000001 -9.103598 -0.043101 -1.865101 2.555813 -11.673030 26.909199 1.710647 -3.886778 40.215474 -0.157953 0.035274 17.815334 0.000000 0.000000 -0.000000 -8.076697 -0.486724 -3.806299 5.576069 -16.029168 36.940641 1.378683 -4.077637 45.645618 -0.727745 -0.247553 22.122735 0.000001 -0.000000 0.000002 4.570400 11.014695 -2.160817 3.545845 -13.448697 -4.903291 2.410665 2.590263 -82.167845 -0.000005 -14.558659 0.000001 -25.667182 5.964508 -9.627296 2.466103 -1.576202 2.681701 18.491369 -0.461333 10.916054 1.284029 32.757604 -3.089009 2.647876 -1.528755 1.528750 2.117133 9.311169 -0.358615 1.998913 -1.154091 1.154083 -0.000001 0.000001 0.000001 9.109293 -0.518015 2.259902 0.339566 4.671362 -7.844251 0.386996 2.823617 -20.566224 0.034617 0.816856 -10.169813 0.000002 0.000000 0.000002 9.533414 0.000004 0.000000 0.912556 8.769292 -15.831723 0.919045 3.991188 -33.400393 0.170559 1.488900 -12.264412 0.000002 -0.000001 0.000002 9.104493 -0.042992 -1.865103 2.555785 11.673080 -26.909176 1.710600 3.886848 -40.215454 0.544841 1.835116 -19.344151 0.000000 0.000000 -0.000000 8.077808 -0.486891 -3.806302 5.576040 16.029243 -36.940607 1.378647 4.077721 -45.645628 0.486563 2.853424 -20.524720 0.000000 0.000000 -0.000000 -8.207799 -6.751719 -1.599544 -1.326900 -4.274718 11.936937 11.177926 -5.857984 3.401180 -9.275260 0.845296 -8.384532 -0.570939 0.000000 0.000000 -0.000000 0.000000 0.000000 8.207801 -6.751714 -1.599547 -20.295248 10.082611 17.055834 22.285319 9.773212 2.545112 -1.244197 2.903088 -9.395840 -0.419552 -0.000024 0.000000 -0.000000 -0.000000 0.000000 
